<svg xmlns="http://www.w3.org/2000/svg" viewBox="0 0 512 512">
<defs>
<linearGradient id="bg" x1="0" y1="0" x2="0.7" y2="1"><stop offset="0" stop-color="#0e7490"/><stop offset="1" stop-color="#082f49"/></linearGradient>
<linearGradient id="dam" x1="0" y1="0" x2="1" y2="1"><stop offset="0" stop-color="#ffffff"/><stop offset="1" stop-color="#cfe3ee"/></linearGradient>
<linearGradient id="wt" x1="0" y1="0" x2="0" y2="1"><stop offset="0" stop-color="#67e8f9" stop-opacity=".95"/><stop offset="1" stop-color="#0891b2" stop-opacity=".9"/></linearGradient>
<clipPath id="c"><rect width="512" height="512"/></clipPath>
</defs>
<g clip-path="url(#c)">
<rect width="512" height="512" fill="url(#bg)"/>
<circle cx="400" cy="112" r="46" fill="#fbbf24" opacity=".95"/>
<path d="M0 232 L132 232 L132 440 L0 440 Z" fill="url(#wt)"/>
<path d="M0 232 q22 -14 44 0 t44 0 t44 0 v14 h-132 z" fill="#ecfeff" opacity=".55"/>
<path d="M132 150 L214 150 L214 188 L360 440 L132 440 Z" fill="url(#dam)"/>
<path d="M132 150 H214 V188 L360 440 H132 Z" fill="none" stroke="#fff" stroke-opacity=".5" stroke-width="3"/>
<path d="M132 218 H190 M132 278 H232 M132 338 H274 M132 398 H316" stroke="#0e7490" stroke-opacity=".28" stroke-width="5" stroke-linecap="round"/>
<path d="M214 188 L360 440 H414 q-120 -10 -160 -120 q-12 -34 -40 -132 Z" fill="url(#wt)" opacity=".9"/>
<rect x="0" y="440" width="512" height="72" fill="#021c2e"/>
<path d="M0 440 H512" stroke="#67e8f9" stroke-width="6" opacity=".7"/>
<g stroke="#fbbf24" stroke-width="9" stroke-linecap="round" stroke-linejoin="round" fill="none"><path d="M172 150 V58 M172 58 H300 M172 58 L132 76 M236 58 V104"/><path d="M158 150 H186" /></g>
<rect x="224" y="104" width="24" height="18" rx="3" fill="#fbbf24"/>
</g>
</svg>
